<svg width="366" height="317" viewBox="0 0 366 317" fill="none" xmlns="http://www.w3.org/2000/svg">
<path d="M62.6621 127.606H53.6799V190.905" stroke="#DFDFDF" stroke-width="4" stroke-miterlimit="10"/>
<path d="M159.728 119.797H79.6903V253.301H159.728V119.797Z" fill="#F3F3F3"/>
<path d="M79.9102 119.797H61.293V253.301H79.9102V119.797Z" fill="#DFDFDF"/>
<path d="M80.1968 257.298C62.1317 257.298 31.3083 233.42 31.3083 213.589C31.3083 212.081 32.1349 209.233 33.9588 209.233C43.8194 209.22 80.1968 234.678 80.1968 257.298Z" fill="#56CAD8"/>
<path d="M199.949 83.6643V170.8H205.723" stroke="#DFDFDF" stroke-width="4" stroke-miterlimit="10"/>
<path d="M295.2 266.423L275.381 237.539" stroke="#ED7562" stroke-width="4" stroke-linecap="round" stroke-linejoin="round"/>
<path d="M303.795 266.423L283.976 237.539" stroke="#ED7562" stroke-width="4" stroke-linecap="round" stroke-linejoin="round"/>
<path d="M240.529 266.423L260.345 237.539" stroke="#ED7562" stroke-width="4" stroke-linecap="round" stroke-linejoin="round"/>
<path d="M286.09 176.674H315.391L295.713 238.445H245.79V236.244H282.814L286.09 176.674Z" fill="#ED7562"/>
<path d="M242.532 264.193L236.978 264.941L237.75 269.24L243.304 268.492L242.532 264.193Z" fill="#DE8E68"/>
<path d="M209.83 261.474L205.116 258.822L202.38 262.471L207.094 265.122L209.83 261.474Z" fill="#DE8E68"/>
<path d="M228.317 217.214C224.214 217.214 203.74 258.5 203.74 260.009C203.74 261.517 208.184 263.229 208.839 263.229C209.861 262.407 229.46 237.869 231.501 236.157C233.541 234.445 228.317 217.214 228.317 217.214Z" fill="#56CAD8"/>
<path d="M260.897 186.895C259.549 187.262 252.967 192.147 251.817 198.014C250.646 197.892 243.619 197.639 240.691 197.536C239.733 196.244 237.717 195.348 235.378 195.348C232.117 195.348 229.473 197.084 229.473 199.224C229.473 199.271 229.473 199.316 229.473 199.364H241.261C241.261 199.316 241.261 199.271 241.261 199.224C241.257 198.683 241.089 198.153 240.773 197.686L251.015 199.1L263.181 200.196L264.435 190.992L260.897 186.895Z" fill="#D37C59"/>
<path d="M270.999 180.357C270.999 179.615 268.864 178.772 267.296 178.772C263.111 178.772 256.032 185.376 256.032 186.206C256.032 187.035 261.129 190.728 265.045 190.95C268.961 191.172 270.999 180.357 270.999 180.357Z" fill="#FCC486"/>
<path d="M281.393 175.063C305.046 175.063 299.641 221.343 296.643 223.297C293.645 225.252 267.363 225.432 265.652 223.477C263.941 221.522 253.324 175.063 281.393 175.063Z" fill="#FED385"/>
<path d="M285.55 166.211H276.095V177.182C276.095 178.923 285.55 178.936 285.55 177.182V166.211Z" fill="#D37C59"/>
<path d="M288.242 162.055C289.45 155.493 286.298 149.602 281.201 148.898C276.104 148.194 270.993 152.943 269.785 159.506C268.576 166.069 271.729 171.96 276.826 172.663C281.922 173.367 287.034 168.618 288.242 162.055Z" fill="#DE8E68"/>
<path d="M301.188 143.046C305.763 143.046 310.338 145.16 316.133 145.16C320.708 145.16 324.978 143.575 330.468 143.575C340.228 143.575 343.278 149.122 343.278 152.556C343.278 161.274 335.043 164.708 328.943 164.708C319.183 164.708 317.963 158.896 306.373 158.896C295.088 158.896 296.613 150.971 294.173 150.971C292.953 150.971 292.19 151.103 291.733 151.5C291.275 151.896 288.988 150.443 288.988 149.915C288.988 149.386 292.038 143.046 301.188 143.046Z" fill="black"/>
<path d="M280.752 145.952C269.964 145.952 267.707 153.061 267.707 155.113C267.707 157.166 269.205 158.688 269.97 158.738C270.446 156.284 272.715 152.897 272.822 152.82C273.432 153.349 275.692 155.045 278.007 155.198C279.936 155.284 281.808 155.789 283.451 156.667C283.588 157.349 283.884 158 284.324 158.579C284.948 159.45 285.891 160.115 287.002 160.468C287.273 161.058 287.428 161.683 287.462 162.317C287.462 165.138 287.157 166.28 286.852 167.072C291.824 167.072 294.172 162.637 294.172 157.034C294.172 147.809 284.748 145.952 280.752 145.952Z" fill="black"/>
<path d="M287.447 164.655C288.903 164.655 290.082 163.633 290.082 162.373C290.082 161.112 288.903 160.09 287.447 160.09C285.992 160.09 284.812 161.112 284.812 162.373C284.812 163.633 285.992 164.655 287.447 164.655Z" fill="#DE8E68"/>
<path d="M278.618 192.147C277.553 192.369 273.286 194.659 270.727 198.611C268.211 198.204 257.975 195.988 248.889 195.988C248.035 195.988 245.818 195.38 244.924 195.38C239.596 195.38 238.483 197.874 238.483 198.611C238.483 199.348 238.666 199.369 238.83 199.369C257.13 199.369 261.733 206.055 272.027 206.055C275.357 206.055 282.223 203.966 286.362 198.614C284.91 194.35 278.618 192.147 278.618 192.147Z" fill="#DE8E68"/>
<path d="M296.607 183.139C302.322 187.944 287.868 201.245 285.55 201.049C283.232 200.854 274.875 193.233 274.796 190.916C274.717 188.599 291.083 178.492 296.607 183.139Z" fill="#FED892"/>
<path d="M308.355 199.961H179.27V203.57H308.355V199.961Z" fill="#FD8369"/>
<path d="M296.591 225.598C296.591 224.462 296.82 223.147 296.003 222.854C276.598 215.925 248.191 215.026 243.814 215.026C239.437 215.026 226.639 215.412 226.639 218.585C226.639 230.044 234.011 265.324 235.509 266.642C236.219 267.263 242.417 266.848 243.189 266.177C243.137 263.271 245.086 234.083 243.308 230.549C259.616 235.726 278.136 238.178 283.016 238.178C297.159 238.165 296.591 226.946 296.591 225.598Z" fill="#74D5DE"/>
<path d="M207.559 264.579L202.636 261.736L189.387 259.333L188.127 261.134L203.74 269.495L207.559 264.579Z" fill="black"/>
<path d="M243.765 267.358L237.925 268.153L226.295 274.154L226.777 276.223L244.802 273.217L243.765 267.358Z" fill="black"/>
<path d="M301.419 257.385V202.56" stroke="#FD8369" stroke-width="4" stroke-linecap="round" stroke-linejoin="round"/>
<path d="M194.166 257.385V202.56" stroke="#FD8369" stroke-width="4" stroke-linecap="round" stroke-linejoin="round"/>
<path d="M292.355 268.372V202.56" stroke="#FD8369" stroke-width="4" stroke-linecap="round" stroke-linejoin="round"/>
<path d="M184.589 268.372V202.56" stroke="#FD8369" stroke-width="4" stroke-linecap="round" stroke-linejoin="round"/>
<path d="M249.346 266.423L269.162 237.539" stroke="#ED7562" stroke-width="4" stroke-linecap="round" stroke-linejoin="round"/>
<path d="M248.072 199.298H226.639V199.961H248.072V199.298Z" fill="#74D5DE"/>
<path d="M249.658 156.083H202.865V185.514H249.658V156.083Z" fill="#74D5DE"/>
<path d="M219.689 179.979L213.235 199.961H224.547L230.812 179.979H219.689Z" fill="#56CAD8"/>
<path d="M228.808 85.0854C231.054 83.1822 232.473 80.6655 232.825 77.9608C233.177 75.256 232.439 72.5291 230.738 70.2407C229.036 67.9524 226.475 66.243 223.486 65.4013C220.498 64.5597 217.265 64.6375 214.336 65.6216C212.462 63.1349 209.843 61.1361 206.76 59.8391C203.676 58.542 200.243 57.9954 196.828 58.2578C193.413 58.5202 190.145 59.5817 187.373 61.3287C184.601 63.0757 182.429 65.4426 181.091 68.1761C178.452 67.252 175.546 67.0656 172.78 67.643C170.013 68.2204 167.524 69.5327 165.662 71.3961C163.799 73.2596 162.656 75.5809 162.392 78.0351C162.128 80.4893 162.757 82.9536 164.19 85.0828L228.808 85.0854Z" fill="#DFDFDF"/>
<path d="M195.185 82.848V101.794H128.063V119.797" stroke="#DFDFDF" stroke-width="4" stroke-miterlimit="10"/>
<path d="M90.4262 268.372C92.2105 268.372 95.6875 263.136 95.6875 252.982C95.6875 245.556 89.679 240.754 87.8947 233.396C85.1497 222.114 71.5559 188.971 50.3309 188.971C47.8909 188.971 44.6152 193.412 44.6152 202.56C44.6152 213.655 57.0226 225.144 57.0226 227.527C57.0348 254.733 84.738 268.372 90.4262 268.372Z" fill="#74D5DE"/>
<path d="M90.5633 268.372C90.5633 266.885 88.0806 256.907 86.7905 254.414C85.5003 251.92 80.4343 239.449 79.6413 236.007C78.8483 232.564 64.1503 198.939 50.346 190.422" stroke="#8BDDE4" stroke-width="3" stroke-linecap="round" stroke-linejoin="round"/>
<path d="M84.2287 248.541L61.0732 244.457" stroke="#8BDDE4" stroke-width="3" stroke-linecap="round" stroke-linejoin="round"/>
<path d="M85.3942 251.328L64.1876 249.799" stroke="#8BDDE4" stroke-width="3" stroke-linecap="round" stroke-linejoin="round"/>
<path d="M78.7203 233.407L57.1965 227.765" stroke="#8BDDE4" stroke-width="3" stroke-linecap="round" stroke-linejoin="round"/>
<path d="M80.7698 239.586L87.3395 235.449" stroke="#8BDDE4" stroke-width="3" stroke-linecap="round" stroke-linejoin="round"/>
<path d="M68.332 212.406L74.8224 206.032" stroke="#8BDDE4" stroke-width="3" stroke-linecap="round" stroke-linejoin="round"/>
<path d="M66.304 209.011L71.8275 202.521" stroke="#8BDDE4" stroke-width="3" stroke-linecap="round" stroke-linejoin="round"/>
<path d="M153.095 128.242H86.321V139.39H153.095V128.242Z" fill="#DFDFDF"/>
<path d="M148.3 134.371C149.547 134.371 150.557 133.496 150.557 132.416C150.557 131.337 149.547 130.461 148.3 130.461C147.054 130.461 146.043 131.337 146.043 132.416C146.043 133.496 147.054 134.371 148.3 134.371Z" fill="#F3F3F3"/>
<path d="M109.379 132.416H144.143" stroke="#F3F3F3" stroke-width="4" stroke-linecap="round" stroke-linejoin="round"/>
<path d="M153.095 147.088H86.321V158.236H153.095V147.088Z" fill="#DFDFDF"/>
<path d="M148.3 153.217C149.547 153.217 150.557 152.341 150.557 151.262C150.557 150.182 149.547 149.307 148.3 149.307C147.054 149.307 146.043 150.182 146.043 151.262C146.043 152.341 147.054 153.217 148.3 153.217Z" fill="#F3F3F3"/>
<path d="M109.379 151.262H144.143" stroke="#F3F3F3" stroke-width="4" stroke-linecap="round" stroke-linejoin="round"/>
<path d="M153.095 165.931H86.321V177.079H153.095V165.931Z" fill="#DFDFDF"/>
<path d="M148.3 172.06C149.547 172.06 150.557 171.184 150.557 170.105C150.557 169.025 149.547 168.15 148.3 168.15C147.054 168.15 146.043 169.025 146.043 170.105C146.043 171.184 147.054 172.06 148.3 172.06Z" fill="#F3F3F3"/>
<path d="M109.379 170.105H144.143" stroke="#F3F3F3" stroke-width="4" stroke-linecap="round" stroke-linejoin="round"/>
<path d="M153.095 184.777H86.321V195.924H153.095V184.777Z" fill="#DFDFDF"/>
<path d="M148.3 190.905C149.547 190.905 150.557 190.03 150.557 188.951C150.557 187.871 149.547 186.996 148.3 186.996C147.054 186.996 146.043 187.871 146.043 188.951C146.043 190.03 147.054 190.905 148.3 190.905Z" fill="#F3F3F3"/>
<path d="M109.379 188.951H144.143" stroke="#F3F3F3" stroke-width="4" stroke-linecap="round" stroke-linejoin="round"/>
<path d="M153.095 203.62H86.321V214.767H153.095V203.62Z" fill="#DFDFDF"/>
<path d="M148.3 209.751C149.547 209.751 150.557 208.876 150.557 207.796C150.557 206.717 149.547 205.842 148.3 205.842C147.054 205.842 146.043 206.717 146.043 207.796C146.043 208.876 147.054 209.751 148.3 209.751Z" fill="#F3F3F3"/>
<path d="M109.379 207.796H144.143" stroke="#F3F3F3" stroke-width="4" stroke-linecap="round" stroke-linejoin="round"/>
<path d="M65.5931 136.262H75.6093" stroke="#F3F3F3" stroke-width="2" stroke-linecap="round" stroke-linejoin="round"/>
<path d="M65.5931 138.508H75.6093" stroke="#F3F3F3" stroke-width="2" stroke-linecap="round" stroke-linejoin="round"/>
<path d="M65.5931 151.539H75.6093" stroke="#F3F3F3" stroke-width="2" stroke-linecap="round" stroke-linejoin="round"/>
<path d="M65.5931 153.785H75.6093" stroke="#F3F3F3" stroke-width="2" stroke-linecap="round" stroke-linejoin="round"/>
<path d="M65.5931 170.105H75.6093" stroke="#F3F3F3" stroke-width="2" stroke-linecap="round" stroke-linejoin="round"/>
<path d="M65.5931 172.353H75.6093" stroke="#F3F3F3" stroke-width="2" stroke-linecap="round" stroke-linejoin="round"/>
<path d="M65.5931 188.068H75.6093" stroke="#F3F3F3" stroke-width="2" stroke-linecap="round" stroke-linejoin="round"/>
<path d="M65.5931 190.316H75.6093" stroke="#F3F3F3" stroke-width="2" stroke-linecap="round" stroke-linejoin="round"/>
</svg>
