<svg width="20" height="20" viewBox="0 0 20 20"  xmlns="http://www.w3.org/2000/svg">
<path d="M9.16667 2.5C7.8225 2.5 6.565 2.86417 5.47333 3.4875L6.84833 5.525L1.26333 5.21L3.11833 0L4.5375 2.10167C5.89833 1.3025 7.475 0.833333 9.16667 0.833333C12.8383 0.833333 15.9975 2.99833 17.4608 6.11667L16.0925 7.12917C14.9633 4.41417 12.285 2.5 9.16667 2.5ZM20 12.905L18.0208 7.77417L13.5983 11.045L16.4225 11.865C15.6042 15.0408 12.7592 17.4075 9.34917 17.49L10.0917 19.1192C13.9325 18.735 17.0692 15.9742 18.0258 12.3308L20 12.905ZM4.9025 16.16C2.94917 14.8058 1.66667 12.5517 1.66667 10C1.66667 8.905 1.90833 7.86667 2.3325 6.9275L0.575833 6.8275C0.21 7.8175 0 8.88333 0 10C0 13.1925 1.6375 15.9933 4.11333 17.6317L2.84333 20L8.27333 19.13L5.99417 14.125L4.9025 16.16Z" />
</svg>
