<svg width="280" height="280" viewBox="0 0 174 124" fill="none" xmlns="http://www.w3.org/2000/svg">
<path d="M121.175 32.8435C135.031 46.2235 151.927 57.1421 151.011 67.1298C150.095 77.0923 131.371 86.1005 110.62 94.2547C89.8364 102.419 67.0584 109.729 49.2386 105.15C31.4188 100.57 18.5504 84.0527 14.8266 67.3759C11.1027 50.6991 16.4365 33.8214 29.7722 20.5385C43.1078 7.25567 64.3789 -2.49423 80.4559 0.564854C96.5328 3.62394 107.32 19.4401 121.175 32.8435Z" fill="#F2F2F2"/>
<path d="M94.3984 68.0507V109.917" stroke="#A4A4A4" stroke-width="3" stroke-linecap="round" stroke-linejoin="round"/>
<path d="M119.407 24.1434H117.735C116.217 24.1434 114.987 25.043 114.987 26.1527V29.5048C114.987 30.6145 116.217 31.5141 117.735 31.5141H119.407C120.925 31.5141 122.155 30.6145 122.155 29.5048V26.1527C122.155 25.043 120.925 24.1434 119.407 24.1434Z" fill="#6BD5E1"/>
<path d="M90.9403 113.706C90.686 114.17 88.9524 117.014 88.9524 117.014L94.5541 118.575L96.226 114.51L90.9403 113.706Z" fill="#E49D75"/>
<path d="M123.019 109.684L124.171 112.792L119.128 114.595L115.802 112.065L123.019 109.684Z" fill="#E49D75"/>
<path d="M115.791 50.1365C115.216 50.622 110.455 54.7979 110.113 55.1278C109.772 55.4576 95.832 58.5552 95.0969 58.6992C94.3617 58.8432 91.7189 59.6838 90.9746 59.6838C90.2303 59.6838 87.8416 59.1061 86.8523 59.225C85.8629 59.3439 82.7048 60.6951 83.0094 61.2343C83.314 61.7734 117.41 59.9734 117.41 59.9734L121.127 51.5162L115.791 50.1365Z" fill="#D38D6A"/>
<path d="M122.478 89.1512L113.814 121.781" stroke="#E0E0E0" stroke-width="2" stroke-linecap="round" stroke-linejoin="round"/>
<path d="M154.405 35.9059H174L155.418 89.1511H119.505V85.6852L139.613 75.9236L154.405 35.9059Z" fill="#E0E0E0"/>
<path d="M113.821 86.0971C114.815 87.5822 123.211 108.432 123.429 109.644C122.359 110.464 117.721 112.289 115.74 112.408C112.385 110.478 102.984 94.2664 102.984 94.2664C102.984 94.2664 106.186 80.8161 113.821 86.0971Z" fill="#5FC5D1"/>
<path d="M154.252 66.2356C154.98 66.8685 157.337 76.2099 157.687 78.626C158.225 82.4235 148.155 87.9858 133.94 87.9858C129.248 87.9858 113.711 87.2206 109.248 85.9882C109.019 88.0527 97.7649 113.801 96.4892 114.734C94.3937 115.134 91.2951 114.302 90.5211 113.729C89.747 113.157 95.8984 77.5862 97.6206 75.289C99.3428 72.9917 134.433 71.2654 134.433 71.2654L154.252 66.2356Z" fill="#6BD5E1"/>
<path d="M129.894 39.5728C136.483 42.3841 126.63 54.664 125.384 54.9771C123.399 54.8097 116.485 51.8544 115.189 49.6794C114.909 48.3432 124.267 37.1701 129.894 39.5728Z" fill="#FFC78E"/>
<path d="M133.544 34.476C144.558 34.476 155.163 65.2159 154.728 66.4466C153.837 68.9699 135.795 73.5845 132.901 71.602C125.579 66.5923 112.076 34.476 133.544 34.476Z" fill="#FFD98E"/>
<path d="M153.347 89.1512L162.011 121.781" stroke="#E0E0E0" stroke-width="2" stroke-linecap="round" stroke-linejoin="round"/>
<path d="M94.9778 118.699L92.1037 124L76.5878 118.945L78.129 116.675L89.4608 116.921L94.9778 118.699Z" fill="black"/>
<path d="M124.264 112.408L128.078 117.383L112.924 122.995L111.488 120.686L118.899 114.416L124.264 112.408Z" fill="black"/>
<path d="M130.936 31.0904C131.185 32.1084 132.768 35.1776 133.455 35.7402C134.142 36.3028 130.443 39.5912 126.33 38.9885C126.206 37.9554 125.719 35.0302 125.073 34.5447C124.427 34.0591 130.936 31.0904 130.936 31.0904Z" fill="#D38D6A"/>
<path d="M127.303 34.5426C131.771 33.4768 133.787 29.0164 131.807 24.5799C129.827 20.1435 124.6 17.4111 120.133 18.477C115.665 19.5428 113.649 24.0032 115.629 28.4397C117.609 32.8761 122.836 35.6085 127.303 34.5426Z" fill="#E49D75"/>
<path d="M116.943 15.008C121.505 15.008 133.228 20.9337 133.228 26.8961C133.228 30.0958 132.454 30.9146 132.161 30.9146C131.868 30.9146 129.037 29.3089 129.037 28.1552C129.037 27.0016 128.481 25.2954 127.938 25.2954C127.022 25.2954 126.887 26.0405 124.583 26.0405C123.701 26.0405 122.045 25.272 122.045 24.3896C120.174 24.413 120.174 24.8651 117.607 24.8651C114.698 24.8651 107.553 23.7901 107.553 22.1392C107.553 21.0207 109.548 20.2505 111.513 20.5234C110.182 20.0027 108.994 18.9277 108.994 18.2161C108.994 17.2199 110.711 16.5317 112.042 16.5317C113.62 16.5317 114.98 17.0173 115.66 17.4928C115.118 16.8063 115.653 15.008 116.943 15.008Z" fill="#FD8369"/>
<path d="M127.574 28.7011C128.88 28.7011 129.939 27.9267 129.939 26.9715C129.939 26.0162 128.88 25.2418 127.574 25.2418C126.267 25.2418 125.208 26.0162 125.208 26.9715C125.208 27.9267 126.267 28.7011 127.574 28.7011Z" fill="#E49D75"/>
<path d="M118.77 65.6178H0V68.0523H118.77V65.6178Z" fill="#A4A4A4"/>
<path d="M108.554 61.6629H59.384H59.2604H10.0905L0 65.596H59.2604H59.384H118.647L108.554 61.6629Z" fill="#E0E0E0"/>
<path d="M14.9571 68.0507V119.112" stroke="#A4A4A4" stroke-width="3" stroke-linecap="round" stroke-linejoin="round"/>
<path d="M24.3696 68.0507V109.917" stroke="#A4A4A4" stroke-width="3" stroke-linecap="round" stroke-linejoin="round"/>
<path d="M103.813 68.0507V119.112" stroke="#A4A4A4" stroke-width="3" stroke-linecap="round" stroke-linejoin="round"/>
<path d="M91.1028 61.9358H70.0447V62.9907H91.1028V61.9358Z" fill="#A4A4A4"/>
<path d="M47.7248 60.6231H43.6941V64.1309H47.7248V60.6231Z" fill="#A4A4A4"/>
<path d="M85.6499 65.1372C88.258 65.1372 90.3723 64.4145 90.3723 63.5231C90.3723 62.6317 88.258 61.909 85.6499 61.909C83.0419 61.909 80.9276 62.6317 80.9276 63.5231C80.9276 64.4145 83.0419 65.1372 85.6499 65.1372Z" fill="#F2F2F2"/>
<path d="M119.148 51.8142C118.461 52.3617 114.256 56.7821 113.803 57.2492C104.184 58.0697 91.4738 60.3251 91.0067 60.3368C90.5395 60.3485 85.1942 59.0827 84.4774 59.1748C83.7606 59.2669 82.2949 61.1455 82.3567 61.5323C82.4185 61.9191 86.6279 63.7776 91.4739 63.7308C92.3899 63.6855 92.6899 63.3205 93.6403 63.3205C94.5908 63.3205 116.313 64.5479 120.083 63.1079C122.132 62.3226 127.892 56.4003 127.892 55.9566C127.892 55.5129 119.148 51.8142 119.148 51.8142Z" fill="#E49D75"/>
<path d="M132.859 41.0061C139.446 43.8174 129.596 56.0973 128.35 56.4104C126.362 56.2429 119.451 53.2877 118.152 51.1127C117.873 49.7765 127.23 38.6034 132.859 41.0061Z" fill="#FFE4AD"/>
<path d="M42.2078 17.0909H40.2772V62.5285H42.2078V17.0909Z" fill="#E0E0E0"/>
<path d="M42.2055 17.0909V39.8089V62.5285L51.3341 60.0873V39.8089V19.5305L42.2055 17.0909Z" fill="#A4A4A4"/>
<path d="M128.229 24.1434H126.557C125.039 24.1434 123.809 25.043 123.809 26.1527V29.5048C123.809 30.6145 125.039 31.5141 126.557 31.5141H128.229C129.746 31.5141 130.977 30.6145 130.977 29.5048V26.1527C130.977 25.043 129.746 24.1434 128.229 24.1434Z" fill="#6BD5E1"/>
<path d="M127.574 25.0727C127.574 24.1435 128.013 18.6699 123.809 17.0541" stroke="#6BD5E1" stroke-width="6" stroke-linecap="round" stroke-linejoin="round"/>
<path d="M127.393 31.514C127.393 32.0482 127.104 35.0771 123.958 35.0771" stroke="#A4A4A4" stroke-width="6" stroke-linecap="round" stroke-linejoin="round"/>
</svg>
