<svg width="20" height="18" viewBox="0 0 20 18" fill="none" xmlns="http://www.w3.org/2000/svg">
<path d="M14.1667 7.89136V6.01773C13.1917 5.67655 12.5775 5.58164 12.2667 4.84691C11.9558 4.11055 12.325 3.60982 12.7667 2.69918L11.4183 1.37455C10.4975 1.80409 9.9825 2.17145 9.23 1.86545C8.48 1.56027 8.3825 0.952364 8.0375 0H6.12917C5.78583 0.947455 5.6875 1.56027 4.93667 1.86545H4.93583C4.18583 2.17145 3.6775 1.80818 2.74833 1.37455L1.40083 2.69918C1.84 3.60736 2.21167 4.10973 1.90083 4.84691C1.58833 5.58409 0.965 5.68064 0 6.01773V7.89055C0.9625 8.22764 1.58917 8.325 1.9 9.06136C2.21333 9.80427 1.8325 10.3165 1.4 11.2091L2.74833 12.5337C3.67083 12.1042 4.185 11.7368 4.93583 12.0428H4.93667C5.68667 12.348 5.785 12.9575 6.12917 13.9083H8.03667C8.38 12.9608 8.47833 12.3496 9.23417 12.0412H9.235C9.98 11.7368 10.4858 12.0993 11.4175 12.5337L12.7658 11.2091C12.3283 10.3034 11.9542 9.79936 12.265 9.06136C12.5767 8.32582 13.2033 8.22764 14.1667 7.89136ZM7.08333 9.27327C5.78 9.27327 4.7225 8.235 4.7225 6.95455C4.7225 5.67409 5.78 4.63582 7.08333 4.63582C8.38667 4.63582 9.44417 5.67409 9.44417 6.95455C9.44417 8.235 8.38667 9.27327 7.08333 9.27327ZM20 12.7137V11.8325C19.5417 11.6722 19.2525 11.6272 19.1058 11.2819C18.9592 10.935 19.1333 10.7002 19.3408 10.2706L18.7058 9.64718C18.2725 9.85009 18.03 10.0219 17.6767 9.87873C17.3233 9.73555 17.2775 9.44918 17.115 9.00082H16.2183C16.0567 9.44673 16.01 9.73473 15.6567 9.87873C15.3033 10.0227 15.0642 9.85173 14.6275 9.64718L13.9925 10.2706C14.1992 10.6985 14.3742 10.935 14.2275 11.2819C14.0808 11.6288 13.7875 11.6738 13.3333 11.8325V12.7137C13.7867 12.8716 14.0808 12.9183 14.2275 13.2644C14.375 13.6137 14.1958 13.8551 13.9925 14.2756L14.6275 14.8991C15.0617 14.6962 15.3042 14.5244 15.6567 14.6675C16.01 14.8107 16.0558 15.0979 16.2183 15.5455H17.115C17.2767 15.0995 17.3233 14.8115 17.6783 14.6667H17.6792C18.03 14.5235 18.2675 14.6945 18.7058 14.8991L19.3408 14.2756C19.135 13.8494 18.9592 13.6113 19.1058 13.2652C19.2525 12.9191 19.5467 12.8716 20 12.7137ZM16.6667 13.3634C16.0533 13.3634 15.5558 12.8749 15.5558 12.2727C15.5558 11.6705 16.0533 11.1821 16.6667 11.1821C17.28 11.1821 17.7775 11.6705 17.7775 12.2727C17.7775 12.8749 17.28 13.3634 16.6667 13.3634ZM13.3333 15.876V15.2149C12.99 15.0946 12.7725 15.0611 12.6625 14.8017C12.5525 14.5424 12.6825 14.3656 12.8392 14.0433L12.3625 13.5761C12.0383 13.7283 11.8567 13.8575 11.5908 13.7495C11.325 13.6415 11.2917 13.4272 11.1692 13.0909H10.4967C10.375 13.4255 10.34 13.6415 10.075 13.7495C9.81083 13.8575 9.63083 13.7299 9.30333 13.5761L8.82667 14.0433C8.9825 14.3648 9.11333 14.5415 9.00333 14.8017C8.89333 15.0619 8.67333 15.0955 8.3325 15.2149V15.876C8.6725 15.9946 8.89333 16.0298 9.00333 16.2892C9.11417 16.551 8.98 16.7326 8.82667 17.0476L9.30333 17.5148C9.62833 17.3626 9.81 17.2334 10.075 17.3414C10.34 17.4494 10.3742 17.6645 10.4967 18H11.1692C11.2908 17.6654 11.3258 17.4494 11.5917 17.3414H11.5925C11.855 17.2342 12.0333 17.3618 12.3625 17.5156L12.8392 17.0485C12.6842 16.7285 12.5525 16.5502 12.6625 16.29C12.7725 16.0298 12.9933 15.9946 13.3333 15.876ZM10.8333 16.3636C10.3733 16.3636 10 15.9979 10 15.5455C10 15.093 10.3733 14.7273 10.8333 14.7273C11.2933 14.7273 11.6667 15.093 11.6667 15.5455C11.6667 15.9979 11.2933 16.3636 10.8333 16.3636Z" fill="white"/>
</svg>
