<svg width="20" height="20" viewBox="0 0 20 20" fill="none" xmlns="http://www.w3.org/2000/svg">
  <path d="M18.2133 8.58587C18.285 9.04754 18.3333 9.51754 18.3333 10C18.3333 15.0625 14.2292 19.1667 9.16667 19.1667C4.10417 19.1667 0 15.0625 0 10C0 4.93754 4.10417 0.833374 9.16667 0.833374C11.1225 0.833374 12.9317 1.45087 14.42 2.49421L13.235 3.70837C12.0617 2.94754 10.6667 2.50004 9.16667 2.50004C5.03167 2.50004 1.66667 5.86504 1.66667 10C1.66667 14.135 5.03167 17.5 9.16667 17.5C13.245 17.5 16.5658 14.2267 16.6583 10.1709L18.2133 8.58587ZM17.42 1.80587L9.58333 9.83837L6.38083 6.82671L3.80167 9.40837L9.58333 15L20 4.38587L17.42 1.80587Z" fill="currentColor"/>
</svg>
